<?xml version="1.0" encoding="iso-8859-1"?>
<!-- Uploaded to: SVG Repo, www.svgrepo.com, Generator: SVG Repo Mixer Tools -->
<svg height="800px" width="800px" version="1.1" id="Layer_1" xmlns="http://www.w3.org/2000/svg" xmlns:xlink="http://www.w3.org/1999/xlink" 
	 viewBox="0 0 512 512" xml:space="preserve">
<path style="fill:#FF5E8A;" d="M107.853,30.414c-17.244,0-30.773,19.227-30.773,19.227s-12.762-19.227-30.78-19.227
	c-17.526,0-31.839,14.456-32.775,31.957c-0.528,9.887,2.66,17.412,7.151,24.228c8.974,13.617,48.209,46.399,56.463,46.399
	c8.425,0,47.309-32.662,56.343-46.399c4.5-6.846,7.679-14.34,7.149-24.228C139.693,44.87,125.381,30.414,107.853,30.414"/>
<path d="M77.137,146.468c-3.553,0-10.943,0-36.548-21.185C29.372,116,15.294,102.911,9.43,94.012
	c-4.4-6.676-10.157-17.297-9.354-32.357c1.34-25.071,21.644-44.708,46.224-44.708c13.067,0,23.643,6.427,30.934,12.826
	c7.38-6.372,17.974-12.826,30.62-12.826c24.579,0,44.885,19.637,46.225,44.706c0.807,15.023-4.946,25.655-9.342,32.345
	c-5.914,8.992-19.918,22.073-31.054,31.316C88.205,146.468,80.729,146.468,77.137,146.468z M79.45,119.832L79.45,119.832
	L79.45,119.832z M74.9,119.819L74.9,119.819L74.9,119.819z M46.3,43.884c-10.089,0-18.759,8.616-19.326,19.208
	c-0.3,5.643,1.133,10.308,4.948,16.098c6.52,9.893,34.739,33.747,45.255,39.57c10.53-5.757,38.301-29.293,45.05-39.559
	c3.82-5.81,5.254-10.479,4.954-16.107c-0.567-10.592-9.237-19.209-19.328-19.209c-7.67,0-16.781,9.277-19.759,13.508
	c-2.524,3.587-6.635,5.718-11.015,5.718c-0.061,0-0.123,0-0.183-0.001c-4.449-0.061-8.578-2.313-11.038-6.019
	C63.558,53.71,54.93,43.884,46.3,43.884z"/>
<path d="M261.979,495.054c-0.874,0-1.751-0.093-2.625-0.268c-0.863-0.175-1.712-0.431-2.519-0.768
	c-0.809-0.337-1.591-0.754-2.33-1.239c-0.727-0.485-1.428-1.051-2.047-1.67c-0.62-0.62-1.185-1.319-1.67-2.047
	c-0.485-0.742-0.902-1.522-1.239-2.33c-0.337-0.808-0.593-1.655-0.768-2.519c-0.175-0.862-0.255-1.751-0.255-2.626
	c0-0.888,0.081-1.764,0.255-2.64c0.175-0.862,0.431-1.711,0.768-2.517c0.337-0.809,0.754-1.591,1.239-2.33
	c0.485-0.727,1.051-1.428,1.67-2.047c3.138-3.125,7.784-4.554,12.161-3.677c0.863,0.175,1.712,0.431,2.519,0.768
	c0.809,0.337,1.591,0.754,2.33,1.239c0.727,0.498,1.428,1.051,2.047,1.67c0.62,0.62,1.185,1.319,1.67,2.047
	c0.485,0.741,0.902,1.522,1.239,2.33s0.593,1.655,0.768,2.517c0.175,0.875,0.255,1.752,0.255,2.64c0,0.875-0.081,1.766-0.255,2.626
	c-0.175,0.863-0.431,1.712-0.768,2.519c-0.337,0.809-0.754,1.589-1.239,2.33c-0.485,0.727-1.051,1.428-1.67,2.047
	C269.011,493.614,265.536,495.054,261.979,495.054z"/>
<path d="M323.491,495.054c-0.874,0-1.764-0.093-2.625-0.268c-0.863-0.175-1.712-0.431-2.519-0.768
	c-0.822-0.337-1.603-0.754-2.33-1.239c-0.741-0.485-1.428-1.051-2.047-1.67c-2.505-2.519-3.948-5.979-3.948-9.522
	c0-0.888,0.094-1.764,0.269-2.64c0.175-0.862,0.431-1.711,0.768-2.517c0.337-0.809,0.754-1.591,1.239-2.33
	c0.485-0.727,1.051-1.428,1.67-2.047c0.62-0.62,1.306-1.172,2.047-1.67c0.727-0.485,1.508-0.902,2.33-1.239
	c0.808-0.337,1.655-0.593,2.519-0.768c4.363-0.889,9.023,0.552,12.149,3.677c0.62,0.62,1.185,1.319,1.684,2.047
	c0.485,0.741,0.902,1.522,1.239,2.33c0.337,0.808,0.593,1.655,0.768,2.517c0.175,0.875,0.255,1.752,0.255,2.64
	c0,3.544-1.44,7.004-3.946,9.522c-0.62,0.62-1.306,1.185-2.047,1.67c-0.727,0.485-1.509,0.902-2.318,1.239
	c-0.82,0.337-1.669,0.593-2.519,0.768C325.257,494.961,324.38,495.054,323.491,495.054z"/>
<path style="fill:#CFEB70;" d="M498.533,268.979c-185.953,0-141.658-168.499-261.862-168.499c-51.96,0-82.016,48.554-89.868,103.438
	l-27.408,17.756c-4.501,2.913-4.267,7.28,0.521,9.696l25.518,12.882c0.31,4.27,0.753,8.519,1.346,12.725
	c9.683,68.827,44.376,127.618,106.135,147.102c36.682,11.572,66.633,3.88,66.921,3.824
	C405.16,391.224,498.533,268.979,498.533,268.979z"/>
<path d="M510.605,263.008c-2.272-4.592-6.95-7.498-12.073-7.498c-95.608,0-124.682-46.562-152.798-91.59
	c-23.608-37.81-48.022-76.908-109.062-76.908c-28.416,0-53.331,12.541-72.049,36.263c-14.848,18.819-25.227,43.822-30.188,72.606
	l-22.361,14.487c-6.213,4.023-9.708,10.402-9.351,17.062c0.358,6.66,4.517,12.628,11.124,15.963l18.854,9.517
	c0.22,2.004,0.467,3.988,0.742,5.942c11.362,80.753,53.299,138.299,115.076,157.955v24.583c0,7.437,6.031,13.469,13.469,13.469
	s13.469-6.031,13.469-13.469V422.74c6.915,0.874,13.341,1.211,19.1,1.211c5.926,0,11.136-0.353,15.47-0.82v18.262
	c0,7.437,6.031,13.469,13.469,13.469s13.469-6.031,13.469-13.469v-24.005c84.649-26.551,168.546-135.355,172.271-140.233
	C512.345,273.083,512.876,267.6,510.605,263.008z M327.459,392.158c-1.254-0.387-2.585-0.595-3.964-0.595
	c-3.627,0-6.912,1.441-9.334,3.773c-6.262,1.173-22.804,3.398-43.541-0.636c-2.338-1.956-5.347-3.137-8.633-3.137
	c-0.991,0-1.954,0.114-2.885,0.318c-0.71-0.21-1.42-0.419-2.136-0.645c-51.67-16.303-86.971-65.922-96.85-136.132
	c-0.536-3.828-0.958-7.807-1.249-11.823c-0.342-4.722-3.137-8.918-7.363-11.051l-13.28-6.705l15.903-10.302
	c3.268-2.116,5.459-5.542,6.01-9.397c6.355-44.416,29.797-91.876,76.535-91.876c46.102,0,63.803,28.348,86.214,64.237
	c26.447,42.357,58.787,94.158,148.102,102.959C442.738,313.714,383.411,375.555,327.459,392.158z"/>
<path style="fill:#BBDCE3;" d="M377.922,276.164c-75.622,18.381-73.004-49.336-121.887-37.455
	c-21.131,5.136-28.917,26.358-27.097,47.766c0,0,2.412,13.836,4.838,19.947c9.936,25.025,29.707,43.585,56.603,44.805
	c15.975,0.725,27.452-5.128,27.565-5.177C351.119,331.346,377.922,276.164,377.922,276.164z"/>
<path d="M293.107,364.757c-1.095,0-2.206-0.026-3.338-0.077c-30.194-1.368-55.807-21.29-68.51-53.288
	c-2.797-7.044-5.146-20.066-5.588-22.605c-0.067-0.388-0.119-0.779-0.151-1.17c-2.68-31.497,11.975-55.831,37.334-61.994
	c28.742-6.985,45.186,7.978,58.401,20.003c15.305,13.925,28.519,25.948,63.489,17.453c5.068-1.235,10.391,0.572,13.665,4.633
	s3.909,9.646,1.63,14.339c-2.958,6.089-29.906,59.87-66.42,76.217C320.789,359.622,309.025,364.757,293.107,364.757z
	 M242.315,284.763c0.939,5.241,2.715,13.502,3.98,16.689c8.813,22.195,25.103,35.432,44.696,36.32
	c11.96,0.56,20.631-3.623,20.995-3.801c0.182-0.088,0.397-0.19,0.583-0.269c14.913-6.609,29.685-24.885,40.21-40.91
	c-30.077-0.327-46.73-15.485-59.652-27.241c-13.228-12.037-19.674-17.209-33.91-13.753
	C241.772,256.037,241.77,277.391,242.315,284.763z"/>
<path d="M222.746,203.335c-0.889,0-1.777-0.093-2.64-0.268c-0.862-0.162-1.711-0.431-2.519-0.768
	c-0.82-0.337-1.601-0.741-2.329-1.226c-0.741-0.498-1.429-1.064-2.049-1.684c-2.504-2.505-3.946-5.967-3.946-9.522
	c0-0.874,0.094-1.764,0.269-2.625c0.175-0.863,0.43-1.712,0.766-2.519c0.337-0.822,0.756-1.603,1.24-2.33
	c0.484-0.741,1.049-1.428,1.669-2.047s1.308-1.185,2.049-1.67c0.727-0.485,1.508-0.902,2.329-1.239
	c0.809-0.337,1.657-0.593,2.519-0.768c1.737-0.35,3.529-0.35,5.266,0c0.862,0.175,1.712,0.431,2.519,0.768
	c0.807,0.337,1.589,0.754,2.329,1.239c0.727,0.485,1.416,1.051,2.049,1.67c0.62,0.62,1.172,1.306,1.67,2.047
	c0.484,0.727,0.902,1.508,1.239,2.33c0.337,0.808,0.591,1.655,0.766,2.519c0.176,0.862,0.256,1.751,0.256,2.625
	c0,3.557-1.428,7.017-3.933,9.522c-0.633,0.62-1.32,1.185-2.049,1.684c-0.741,0.485-1.522,0.889-2.329,1.226
	c-0.807,0.337-1.657,0.606-2.519,0.768C224.495,203.24,223.621,203.335,222.746,203.335z"/>
</svg>