<?xml version="1.0" encoding="UTF-8"?>
<svg version="1.1" xmlns="http://www.w3.org/2000/svg" width="500" height="500">
<path d="M0 0 C1.3875813 0.28211842 2.77557618 0.56221379 4.1640625 0.83984375 C34.69718355 7.58697946 62.42234594 22.00310574 87.22558594 40.69287109 C89.10320636 42.07602736 91.02220317 43.38809313 92.9453125 44.70703125 C94.45738281 45.84205078 94.45738281 45.84205078 96 47 C96 47.66 96 48.32 96 49 C96.66 49 97.32 49 98 49 C98 49.66 98 50.32 98 51 C98.57975586 51.25523438 99.15951172 51.51046875 99.75683594 51.7734375 C102.23015312 53.12584777 103.89602109 54.63732524 105.890625 56.625 C106.95410156 57.68460938 106.95410156 57.68460938 108.0390625 58.765625 C109.13347656 59.87164062 109.13347656 59.87164062 110.25 61 C110.99507813 61.73734375 111.74015625 62.4746875 112.5078125 63.234375 C113.21164062 63.94078125 113.91546875 64.6471875 114.640625 65.375 C115.28547852 66.02210937 115.93033203 66.66921875 116.59472656 67.3359375 C118 69 118 69 118 71 C118.66 71 119.32 71 120 71 C120 71.66 120 72.32 120 73 C120.66 73 121.32 73 122 73 C164.39428568 120.79913485 179.86480734 183.6423039 179 246 C178.99274902 246.75168457 178.98549805 247.50336914 178.97802734 248.27783203 C178.79992991 260.10772769 176.10896438 271.58870853 173.61572266 283.10595703 C173.09920878 285.53369511 172.62161377 287.96234453 172.16796875 290.40234375 C165.34853891 324.02918743 147.33741275 355.49978294 126 382 C125.58169922 382.52271484 125.16339844 383.04542969 124.73242188 383.58398438 C115.621719 394.89238352 105.53066707 406.11212815 94 415 C93.34 415 92.68 415 92 415 C92 415.66 92 416.32 92 417 C89.9055032 418.63429751 87.82217909 420.14167234 85.625 421.625 C85.02171875 422.04523438 84.4184375 422.46546875 83.796875 422.8984375 C79.26537135 426 79.26537135 426 77 426 C77 426.66 77 427.32 77 428 C73.98332971 430.27859574 70.63507517 432.09192925 67.375 434 C66.38822266 434.57943359 65.40144531 435.15886719 64.38476562 435.75585938 C54.24929712 441.59805397 43.79168427 446.50365112 33 451 C31.80761719 451.50015625 30.61523438 452.0003125 29.38671875 452.515625 C-7.1693302 466.62027881 -47.6339664 468.71569988 -86 463 C-86.7518457 462.89316895 -87.50369141 462.78633789 -88.27832031 462.67626953 C-105.70113773 460.13908737 -123.13685907 454.59485285 -139 447 C-139.93585938 446.55769043 -139.93585938 446.55769043 -140.890625 446.10644531 C-154.3002396 439.73819822 -166.85029597 432.33832955 -179 423.8125 C-180.04111938 423.08208496 -180.04111938 423.08208496 -181.10327148 422.33691406 C-185.61673144 419.11682936 -189.84180273 415.66434487 -194 412 C-194.721875 411.38253906 -195.44375 410.76507813 -196.1875 410.12890625 C-200.65738011 406.26592796 -204.86945994 402.22165492 -209 398 C-209.886875 397.113125 -210.77375 396.22625 -211.6875 395.3125 C-212.450625 394.549375 -213.21375 393.78625 -214 393 C-215.1446875 391.9171875 -215.1446875 391.9171875 -216.3125 390.8125 C-218 389 -218 389 -218 387 C-218.66 387 -219.32 387 -220 387 C-220 386.34 -220 385.68 -220 385 C-220.66 385 -221.32 385 -222 385 C-223.75410977 382.99617322 -225.38572687 380.98782718 -227 378.875 C-227.49056885 378.23755859 -227.9811377 377.60011719 -228.48657227 376.94335938 C-229.50555273 375.61204459 -230.52055986 374.27768002 -231.53173828 372.94042969 C-232.44885368 371.7283856 -233.37090301 370.52004063 -234.30029297 369.31738281 C-246.06153343 354.06942363 -254.67836642 336.7416404 -262 319 C-262.44730469 318.01644531 -262.89460938 317.03289062 -263.35546875 316.01953125 C-268.7490762 303.98763771 -271.44218955 290.96992287 -274.1875 278.125 C-274.34226807 277.40175537 -274.49703613 276.67851074 -274.65649414 275.93334961 C-275.13248073 273.62692409 -275.56795658 271.31504417 -276 269 C-276.18095215 268.12802979 -276.3619043 267.25605957 -276.54833984 266.35766602 C-278.42253848 256.22116682 -278.30263836 246.09427415 -278.26074219 235.81762695 C-278.25005796 232.70439005 -278.26066733 229.59173463 -278.2734375 226.47851562 C-278.28533153 211.16693971 -277.08538323 196.60854694 -273.75 181.625 C-273.53311523 180.64732666 -273.31623047 179.66965332 -273.09277344 178.66235352 C-268.00848401 156.48638984 -259.40440625 134.68232045 -248 115 C-247.6390625 114.37013184 -247.278125 113.74026367 -246.90625 113.09130859 C-242.0679373 104.68516026 -236.85283634 96.74443744 -231 89 C-230.18833363 87.88670535 -229.3785129 86.77206332 -228.5703125 85.65625 C-227.7554667 84.54147777 -226.94036766 83.42689059 -226.125 82.3125 C-225.01511719 80.79076172 -225.01511719 80.79076172 -223.8828125 79.23828125 C-223.26148438 78.49964844 -222.64015625 77.76101562 -222 77 C-221.34 77 -220.68 77 -220 77 C-220 76.34 -220 75.68 -220 75 C-219.34 75 -218.68 75 -218 75 C-217.73574219 74.41863281 -217.47148437 73.83726563 -217.19921875 73.23828125 C-213.76646324 66.83121641 -207.53617032 60.67433905 -202 56 C-201.34 56 -200.68 56 -200 56 C-200 55.34 -200 54.68 -200 54 C-199.34 54 -198.68 54 -198 54 C-198 53.34 -198 52.68 -198 52 C-194.53846154 49 -194.53846154 49 -192 49 C-192 48.34 -192 47.68 -192 47 C-190.13728377 45.40763015 -188.28343897 43.94643353 -186.3125 42.5 C-185.78205078 42.09652344 -185.25160156 41.69304688 -184.70507812 41.27734375 C-181.59983121 38.96841169 -178.66333293 37.25056263 -175 36 C-175 35.34 -175 34.68 -175 34 C-168.25 30 -168.25 30 -166 30 C-166 29.34 -166 28.68 -166 28 C-165.33097656 27.67128906 -164.66195312 27.34257813 -163.97265625 27.00390625 C-159.22039635 24.65010235 -154.49173877 22.28475112 -149.83984375 19.73828125 C-142.60526339 15.78894553 -135.67188961 12.16280666 -127.7109375 9.8515625 C-124.87413442 9.01525015 -124.87413442 9.01525015 -121.78125 7.58203125 C-113.58120551 3.99825876 -104.67108209 2.09017538 -96 0 C-95.10120117 -0.21897949 -94.20240234 -0.43795898 -93.27636719 -0.66357422 C-63.86120945 -7.45293398 -29.33543615 -6.74217409 0 0 Z " fill="#F6F7F4" transform="translate(300,18)"/>
<path d="M0 0 C1.3875813 0.28211842 2.77557618 0.56221379 4.1640625 0.83984375 C34.69718355 7.58697946 62.42234594 22.00310574 87.22558594 40.69287109 C89.10320636 42.07602736 91.02220317 43.38809313 92.9453125 44.70703125 C94.45738281 45.84205078 94.45738281 45.84205078 96 47 C96 47.66 96 48.32 96 49 C96.66 49 97.32 49 98 49 C98 49.66 98 50.32 98 51 C98.57975586 51.25523438 99.15951172 51.51046875 99.75683594 51.7734375 C102.23015312 53.12584777 103.89602109 54.63732524 105.890625 56.625 C106.95410156 57.68460938 106.95410156 57.68460938 108.0390625 58.765625 C109.13347656 59.87164062 109.13347656 59.87164062 110.25 61 C110.99507813 61.73734375 111.74015625 62.4746875 112.5078125 63.234375 C113.21164062 63.94078125 113.91546875 64.6471875 114.640625 65.375 C115.28547852 66.02210937 115.93033203 66.66921875 116.59472656 67.3359375 C118 69 118 69 118 71 C118.66 71 119.32 71 120 71 C120 71.66 120 72.32 120 73 C120.66 73 121.32 73 122 73 C164.39428568 120.79913485 179.86480734 183.6423039 179 246 C178.99274902 246.75168457 178.98549805 247.50336914 178.97802734 248.27783203 C178.79992991 260.10772769 176.10896438 271.58870853 173.61572266 283.10595703 C173.09920878 285.53369511 172.62161377 287.96234453 172.16796875 290.40234375 C165.34853891 324.02918743 147.33741275 355.49978294 126 382 C125.58169922 382.52271484 125.16339844 383.04542969 124.73242188 383.58398438 C115.621719 394.89238352 105.53066707 406.11212815 94 415 C93.34 415 92.68 415 92 415 C92 415.66 92 416.32 92 417 C89.9055032 418.63429751 87.82217909 420.14167234 85.625 421.625 C85.02171875 422.04523438 84.4184375 422.46546875 83.796875 422.8984375 C79.26537135 426 79.26537135 426 77 426 C77 426.66 77 427.32 77 428 C73.98332971 430.27859574 70.63507517 432.09192925 67.375 434 C66.38822266 434.57943359 65.40144531 435.15886719 64.38476562 435.75585938 C54.24929712 441.59805397 43.79168427 446.50365112 33 451 C31.80761719 451.50015625 30.61523438 452.0003125 29.38671875 452.515625 C-7.1693302 466.62027881 -47.6339664 468.71569988 -86 463 C-86.7518457 462.89316895 -87.50369141 462.78633789 -88.27832031 462.67626953 C-105.70113773 460.13908737 -123.13685907 454.59485285 -139 447 C-139.93585938 446.55769043 -139.93585938 446.55769043 -140.890625 446.10644531 C-154.3002396 439.73819822 -166.85029597 432.33832955 -179 423.8125 C-180.04111938 423.08208496 -180.04111938 423.08208496 -181.10327148 422.33691406 C-185.61673144 419.11682936 -189.84180273 415.66434487 -194 412 C-194.721875 411.38253906 -195.44375 410.76507813 -196.1875 410.12890625 C-200.65738011 406.26592796 -204.86945994 402.22165492 -209 398 C-209.886875 397.113125 -210.77375 396.22625 -211.6875 395.3125 C-212.450625 394.549375 -213.21375 393.78625 -214 393 C-215.1446875 391.9171875 -215.1446875 391.9171875 -216.3125 390.8125 C-218 389 -218 389 -218 387 C-218.66 387 -219.32 387 -220 387 C-220 386.34 -220 385.68 -220 385 C-220.66 385 -221.32 385 -222 385 C-223.75410977 382.99617322 -225.38572687 380.98782718 -227 378.875 C-227.49056885 378.23755859 -227.9811377 377.60011719 -228.48657227 376.94335938 C-229.50555273 375.61204459 -230.52055986 374.27768002 -231.53173828 372.94042969 C-232.44885368 371.7283856 -233.37090301 370.52004063 -234.30029297 369.31738281 C-246.06153343 354.06942363 -254.67836642 336.7416404 -262 319 C-262.44730469 318.01644531 -262.89460938 317.03289062 -263.35546875 316.01953125 C-268.7490762 303.98763771 -271.44218955 290.96992287 -274.1875 278.125 C-274.34226807 277.40175537 -274.49703613 276.67851074 -274.65649414 275.93334961 C-275.13248073 273.62692409 -275.56795658 271.31504417 -276 269 C-276.18095215 268.12802979 -276.3619043 267.25605957 -276.54833984 266.35766602 C-278.42253848 256.22116682 -278.30263836 246.09427415 -278.26074219 235.81762695 C-278.25005796 232.70439005 -278.26066733 229.59173463 -278.2734375 226.47851562 C-278.28533153 211.16693971 -277.08538323 196.60854694 -273.75 181.625 C-273.53311523 180.64732666 -273.31623047 179.66965332 -273.09277344 178.66235352 C-268.00848401 156.48638984 -259.40440625 134.68232045 -248 115 C-247.6390625 114.37013184 -247.278125 113.74026367 -246.90625 113.09130859 C-242.0679373 104.68516026 -236.85283634 96.74443744 -231 89 C-230.18833363 87.88670535 -229.3785129 86.77206332 -228.5703125 85.65625 C-227.7554667 84.54147777 -226.94036766 83.42689059 -226.125 82.3125 C-225.01511719 80.79076172 -225.01511719 80.79076172 -223.8828125 79.23828125 C-223.26148438 78.49964844 -222.64015625 77.76101562 -222 77 C-221.34 77 -220.68 77 -220 77 C-220 76.34 -220 75.68 -220 75 C-219.34 75 -218.68 75 -218 75 C-217.73574219 74.41863281 -217.47148437 73.83726563 -217.19921875 73.23828125 C-213.76646324 66.83121641 -207.53617032 60.67433905 -202 56 C-201.34 56 -200.68 56 -200 56 C-200 55.34 -200 54.68 -200 54 C-199.34 54 -198.68 54 -198 54 C-198 53.34 -198 52.68 -198 52 C-194.53846154 49 -194.53846154 49 -192 49 C-192 48.34 -192 47.68 -192 47 C-190.13728377 45.40763015 -188.28343897 43.94643353 -186.3125 42.5 C-185.78205078 42.09652344 -185.25160156 41.69304688 -184.70507812 41.27734375 C-181.59983121 38.96841169 -178.66333293 37.25056263 -175 36 C-175 35.34 -175 34.68 -175 34 C-168.25 30 -168.25 30 -166 30 C-166 29.34 -166 28.68 -166 28 C-165.33097656 27.67128906 -164.66195312 27.34257813 -163.97265625 27.00390625 C-159.22039635 24.65010235 -154.49173877 22.28475112 -149.83984375 19.73828125 C-142.60526339 15.78894553 -135.67188961 12.16280666 -127.7109375 9.8515625 C-124.87413442 9.01525015 -124.87413442 9.01525015 -121.78125 7.58203125 C-113.58120551 3.99825876 -104.67108209 2.09017538 -96 0 C-95.10120117 -0.21897949 -94.20240234 -0.43795898 -93.27636719 -0.66357422 C-63.86120945 -7.45293398 -29.33543615 -6.74217409 0 0 Z M-100 26 C-101.87751953 26.52013672 -101.87751953 26.52013672 -103.79296875 27.05078125 C-134.57686934 35.86338161 -162.60937472 52.27882327 -186 74 C-186.62793457 74.58265625 -187.25586914 75.1653125 -187.90283203 75.765625 C-197.20274477 84.49838307 -205.19631037 93.853523 -212.67822266 104.17871094 C-213.77236059 105.68633358 -214.8891557 107.17748386 -216.01171875 108.6640625 C-239.1454309 140.04825941 -252.99893609 182.69995833 -253.203125 221.49609375 C-253.20882507 222.36911636 -253.21452515 223.24213898 -253.22039795 224.14161682 C-253.22977533 225.97940895 -253.2363527 227.81721734 -253.24023438 229.6550293 C-253.24986801 232.39989379 -253.28093203 235.14398452 -253.3125 237.88867188 C-253.40800319 253.73284636 -251.31006586 268.81204069 -247.5 284.1875 C-247.30019531 285.03634766 -247.10039062 285.88519531 -246.89453125 286.75976562 C-245.62238787 292.01444703 -243.98706398 296.97738667 -242 302 C-241.48358282 303.38463739 -240.96930946 304.77007597 -240.45703125 306.15625 C-235.40611925 319.58694453 -229.65075604 332.44374763 -221.69921875 344.43359375 C-220.56129446 346.15225181 -219.45959335 347.89541832 -218.39453125 349.66015625 C-213.67138743 357.45727015 -208.00012611 364.17812747 -202 371 C-201.31164062 371.78890625 -200.62328125 372.5778125 -199.9140625 373.390625 C-198.77866467 374.68963911 -197.63974687 375.98559167 -196.49609375 377.27734375 C-195.01349953 378.98445616 -193.6003066 380.73501552 -192.1875 382.5 C-191.1046875 383.7375 -191.1046875 383.7375 -190 385 C-189.34 385 -188.68 385 -188 385 C-187.79503906 385.55171875 -187.59007812 386.1034375 -187.37890625 386.671875 C-185.47944017 389.87890556 -182.80202528 391.94497849 -179.9375 394.25 C-179.38255859 394.70890625 -178.82761719 395.1678125 -178.25585938 395.640625 C-175.90627281 397.97148393 -175.90627281 397.97148393 -173 399 C-172.99120064 397.77543091 -172.99120064 397.77543091 -172.98222351 396.52612305 C-172.92386212 388.76078776 -172.85154544 380.99575762 -172.76428509 373.23069763 C-172.7199165 369.24040824 -172.68059106 365.25021314 -172.65356445 361.25976562 C-172.62719134 357.3951137 -172.58656191 353.53083147 -172.53681374 349.66641235 C-172.52037107 348.20599026 -172.50871844 346.74550458 -172.50238609 345.28500366 C-172.35854893 315.10605824 -161.93557909 287.97373352 -140.46923828 266.40771484 C-129.99728109 256.37426433 -116.94411816 249.19085598 -103.125 245 C-102.44800049 244.79213867 -101.77100098 244.58427734 -101.07348633 244.37011719 C-92.01678117 241.84903071 -84.62501674 243.0222314 -75.8125 245.9375 C-55.71602686 252.406193 -34.93208841 251.45114664 -15.42578125 242.8671875 C-6.55276551 239.69519153 6.02331437 244.23012266 14.20410156 248.02148438 C24.02481722 252.92559758 32.92865334 258.52452457 41 266 C41.74765625 266.6909375 42.4953125 267.381875 43.265625 268.09375 C47.42339296 272.09752655 50.70104524 276.27263185 54 281 C52.83984375 280.71125 51.6796875 280.4225 50.484375 280.125 C31.03025336 275.42960968 14.05384282 276.35406256 -3.453125 286.671875 C-18.13413671 295.9533416 -28.59043969 310.76990604 -32.60083008 327.72192383 C-35.05475141 341.7265354 -33.55520782 355.99844977 -28 369 C-27.5771875 369.99 -27.154375 370.98 -26.71875 372 C-18.64379306 388.52549327 -3.48977948 399.33876086 13.26953125 405.88671875 C29.08562002 410.28527598 47.77072596 406.98463975 61.80395508 399.17675781 C71.40720344 393.56188899 77.93127408 386.25761662 84 377 C84 376.34 84 375.68 84 375 C84.66 375 85.32 375 86 375 C85.2575 376.2375 85.2575 376.2375 84.5 377.5 C82.64870627 381.81968538 82.61200786 384.34409434 83 389 C83.66 389.66 84.32 390.32 85 391 C89.20780551 387.71585912 92.68940853 384.22889924 96.1484375 380.16796875 C98.06047863 377.92918641 100.02568472 375.74644335 102 373.5625 C109.23693203 366.54850734 109.23693203 366.54850734 113 358 C113.66 358 114.32 358 115 358 C115.61875 356.865625 116.2375 355.73125 116.875 354.5625 C118.58498314 351.46044607 120.3513443 348.40700276 122.20703125 345.390625 C131.50437117 330.17968362 139.29670413 314.23694378 144 297 C144.49093806 295.60095371 144.99051992 294.20490107 145.5 292.8125 C147.98160474 285.38117277 149.48433255 277.67420777 151 270 C151.23299805 268.856521 151.23299805 268.856521 151.47070312 267.68994141 C156.2482947 243.38316867 155.86343371 216.2697204 151 192 C150.82839355 191.13842285 150.65678711 190.2768457 150.47998047 189.38916016 C144.02039513 158.04949185 131.77352011 128.40995847 113 102.4375 C112.53086182 101.78724854 112.06172363 101.13699707 111.57836914 100.46704102 C110.43872314 98.93697043 109.22576892 97.46198481 108 96 C107.34 96 106.68 96 106 96 C105.92072266 95.19949219 105.92072266 95.19949219 105.83984375 94.3828125 C104.59559361 90.85261442 102.10720292 88.52783035 99.5625 85.875 C99.02117432 85.30168945 98.47984863 84.72837891 97.92211914 84.13769531 C96.28996389 82.41671366 94.64647788 80.70727091 93 79 C91.69675781 77.63488281 91.69675781 77.63488281 90.3671875 76.2421875 C81.74839341 67.4016881 72.2604428 59.84561425 62 53 C61.16082031 52.43667969 60.32164062 51.87335938 59.45703125 51.29296875 C33.00934805 33.98672997 3.21019893 24.24585447 -28 20 C-28.92941406 19.86851563 -29.85882813 19.73703125 -30.81640625 19.6015625 C-53.84570372 16.9346329 -77.81809632 19.51173462 -100 26 Z " fill="#B7CAB7" transform="translate(300,18)"/>
<path d="M0 0 C1.3875813 0.28211842 2.77557618 0.56221379 4.1640625 0.83984375 C34.69718355 7.58697946 62.42234594 22.00310574 87.22558594 40.69287109 C89.10320636 42.07602736 91.02220317 43.38809313 92.9453125 44.70703125 C94.45738281 45.84205078 94.45738281 45.84205078 96 47 C96 47.66 96 48.32 96 49 C96.66 49 97.32 49 98 49 C98 49.66 98 50.32 98 51 C98.57975586 51.25523438 99.15951172 51.51046875 99.75683594 51.7734375 C102.23015312 53.12584777 103.89602109 54.63732524 105.890625 56.625 C106.95410156 57.68460938 106.95410156 57.68460938 108.0390625 58.765625 C109.13347656 59.87164062 109.13347656 59.87164062 110.25 61 C110.99507813 61.73734375 111.74015625 62.4746875 112.5078125 63.234375 C113.21164062 63.94078125 113.91546875 64.6471875 114.640625 65.375 C115.28547852 66.02210937 115.93033203 66.66921875 116.59472656 67.3359375 C118 69 118 69 118 71 C118.66 71 119.32 71 120 71 C120 71.66 120 72.32 120 73 C120.66 73 121.32 73 122 73 C164.39428568 120.79913485 179.86480734 183.6423039 179 246 C178.99274902 246.75168457 178.98549805 247.50336914 178.97802734 248.27783203 C178.79992991 260.10772769 176.10896438 271.58870853 173.61572266 283.10595703 C173.09920878 285.53369511 172.62161377 287.96234453 172.16796875 290.40234375 C165.34853891 324.02918743 147.33741275 355.49978294 126 382 C125.58169922 382.52271484 125.16339844 383.04542969 124.73242188 383.58398438 C115.621719 394.89238352 105.53066707 406.11212815 94 415 C93.34 415 92.68 415 92 415 C92 415.66 92 416.32 92 417 C89.9055032 418.63429751 87.82217909 420.14167234 85.625 421.625 C85.02171875 422.04523438 84.4184375 422.46546875 83.796875 422.8984375 C79.26537135 426 79.26537135 426 77 426 C77 426.66 77 427.32 77 428 C73.98332971 430.27859574 70.63507517 432.09192925 67.375 434 C66.38822266 434.57943359 65.40144531 435.15886719 64.38476562 435.75585938 C54.24929712 441.59805397 43.79168427 446.50365112 33 451 C31.80761719 451.50015625 30.61523438 452.0003125 29.38671875 452.515625 C-7.1693302 466.62027881 -47.6339664 468.71569988 -86 463 C-86.7518457 462.89316895 -87.50369141 462.78633789 -88.27832031 462.67626953 C-105.70113773 460.13908737 -123.13685907 454.59485285 -139 447 C-139.93585938 446.55769043 -139.93585938 446.55769043 -140.890625 446.10644531 C-154.3002396 439.73819822 -166.85029597 432.33832955 -179 423.8125 C-180.04111938 423.08208496 -180.04111938 423.08208496 -181.10327148 422.33691406 C-185.61673144 419.11682936 -189.84180273 415.66434487 -194 412 C-194.721875 411.38253906 -195.44375 410.76507813 -196.1875 410.12890625 C-200.65738011 406.26592796 -204.86945994 402.22165492 -209 398 C-209.886875 397.113125 -210.77375 396.22625 -211.6875 395.3125 C-212.450625 394.549375 -213.21375 393.78625 -214 393 C-215.1446875 391.9171875 -215.1446875 391.9171875 -216.3125 390.8125 C-218 389 -218 389 -218 387 C-218.66 387 -219.32 387 -220 387 C-220 386.34 -220 385.68 -220 385 C-220.66 385 -221.32 385 -222 385 C-223.75410977 382.99617322 -225.38572687 380.98782718 -227 378.875 C-227.49056885 378.23755859 -227.9811377 377.60011719 -228.48657227 376.94335938 C-229.50555273 375.61204459 -230.52055986 374.27768002 -231.53173828 372.94042969 C-232.44885368 371.7283856 -233.37090301 370.52004063 -234.30029297 369.31738281 C-246.06153343 354.06942363 -254.67836642 336.7416404 -262 319 C-262.44730469 318.01644531 -262.89460938 317.03289062 -263.35546875 316.01953125 C-268.7490762 303.98763771 -271.44218955 290.96992287 -274.1875 278.125 C-274.34226807 277.40175537 -274.49703613 276.67851074 -274.65649414 275.93334961 C-275.13248073 273.62692409 -275.56795658 271.31504417 -276 269 C-276.18095215 268.12802979 -276.3619043 267.25605957 -276.54833984 266.35766602 C-278.42253848 256.22116682 -278.30263836 246.09427415 -278.26074219 235.81762695 C-278.25005796 232.70439005 -278.26066733 229.59173463 -278.2734375 226.47851562 C-278.28533153 211.16693971 -277.08538323 196.60854694 -273.75 181.625 C-273.53311523 180.64732666 -273.31623047 179.66965332 -273.09277344 178.66235352 C-268.00848401 156.48638984 -259.40440625 134.68232045 -248 115 C-247.6390625 114.37013184 -247.278125 113.74026367 -246.90625 113.09130859 C-242.0679373 104.68516026 -236.85283634 96.74443744 -231 89 C-230.18833363 87.88670535 -229.3785129 86.77206332 -228.5703125 85.65625 C-227.7554667 84.54147777 -226.94036766 83.42689059 -226.125 82.3125 C-225.01511719 80.79076172 -225.01511719 80.79076172 -223.8828125 79.23828125 C-223.26148438 78.49964844 -222.64015625 77.76101562 -222 77 C-221.34 77 -220.68 77 -220 77 C-220 76.34 -220 75.68 -220 75 C-219.34 75 -218.68 75 -218 75 C-217.73574219 74.41863281 -217.47148437 73.83726563 -217.19921875 73.23828125 C-213.76646324 66.83121641 -207.53617032 60.67433905 -202 56 C-201.34 56 -200.68 56 -200 56 C-200 55.34 -200 54.68 -200 54 C-199.34 54 -198.68 54 -198 54 C-198 53.34 -198 52.68 -198 52 C-194.53846154 49 -194.53846154 49 -192 49 C-192 48.34 -192 47.68 -192 47 C-190.13728377 45.40763015 -188.28343897 43.94643353 -186.3125 42.5 C-185.78205078 42.09652344 -185.25160156 41.69304688 -184.70507812 41.27734375 C-181.59983121 38.96841169 -178.66333293 37.25056263 -175 36 C-175 35.34 -175 34.68 -175 34 C-168.25 30 -168.25 30 -166 30 C-166 29.34 -166 28.68 -166 28 C-165.33097656 27.67128906 -164.66195312 27.34257813 -163.97265625 27.00390625 C-159.22039635 24.65010235 -154.49173877 22.28475112 -149.83984375 19.73828125 C-142.60526339 15.78894553 -135.67188961 12.16280666 -127.7109375 9.8515625 C-124.87413442 9.01525015 -124.87413442 9.01525015 -121.78125 7.58203125 C-113.58120551 3.99825876 -104.67108209 2.09017538 -96 0 C-95.10120117 -0.21897949 -94.20240234 -0.43795898 -93.27636719 -0.66357422 C-63.86120945 -7.45293398 -29.33543615 -6.74217409 0 0 Z M-116 22 C-116.64839844 22.21495117 -117.29679688 22.42990234 -117.96484375 22.65136719 C-135.09754203 28.41684765 -150.72120587 37.45303545 -166 47 C-166.96550781 47.60199219 -167.93101562 48.20398438 -168.92578125 48.82421875 C-172.05042882 50.7922587 -172.05042882 50.7922587 -175 53 C-175 53.66 -175 54.32 -175 55 C-175.56074219 55.25394531 -176.12148437 55.50789063 -176.69921875 55.76953125 C-210.3527144 73.76758071 -235.68964641 118.37975646 -248 153 C-248.61294922 154.71703125 -248.61294922 154.71703125 -249.23828125 156.46875 C-268.12933 211.21185102 -266.74597852 268.95047351 -243 322 C-242.5973291 322.91088379 -242.1946582 323.82176758 -241.77978516 324.76025391 C-236.50358737 336.60602017 -230.67362694 347.54314994 -223 358 C-222.51160645 358.67482422 -222.02321289 359.34964844 -221.52001953 360.04492188 C-213.73875604 370.74078296 -205.25828006 380.5606655 -196 390 C-195.11526001 390.90564697 -195.11526001 390.90564697 -194.21264648 391.82958984 C-189.12634599 396.98409347 -183.68481793 401.51556195 -178 406 C-177.06027344 406.74507813 -176.12054688 407.49015625 -175.15234375 408.2578125 C-168.03942944 413.75284993 -160.62761212 418.43313964 -152.85839844 422.91796875 C-151.09385042 423.94535667 -149.34710197 425.00313811 -147.6015625 426.0625 C-130.85535113 436.05557718 -112.84821749 442.2232046 -94 447 C-92.70425049 447.3410376 -92.70425049 447.3410376 -91.38232422 447.68896484 C-63.99340257 454.61740876 -31.37927412 453.38830406 -4 447 C-2.64270796 446.727847 -1.2846726 446.45936407 0.07421875 446.1953125 C35.14528113 438.62601846 67.33881687 419.67244579 93 395 C93.90202148 394.13882568 93.90202148 394.13882568 94.82226562 393.26025391 C103.38030271 385.04969586 111.18282609 376.72383085 118 367 C118.41056641 366.41782715 118.82113281 365.8356543 119.24414062 365.23583984 C154.26655975 315.16346411 169.91070032 253.70841672 159.83691406 193.07373047 C153.55051775 159.11340907 140.85206797 125.69351266 120 98 C119.37480469 97.10796875 118.74960937 96.2159375 118.10546875 95.296875 C112.9731858 87.97997466 107.19137532 81.42246865 101 75 C100.43941895 74.41750488 99.87883789 73.83500977 99.30126953 73.23486328 C92.25471382 65.95452635 85.16416748 59.03653595 77 53 C76.02546875 52.2471875 75.0509375 51.494375 74.046875 50.71875 C59.27181208 39.52871373 42.29485701 30.62707659 25 24 C23.85990479 23.56179932 23.85990479 23.56179932 22.69677734 23.11474609 C-21.97065572 6.32079442 -71.05482202 6.92481794 -116 22 Z " fill="#F2F3F2" transform="translate(300,18)"/>
<path d="M0 0 C0.33 0 0.66 0 1 0 C1.46976181 20.72372306 1.24679275 40.60319334 -3 61 C-3.30478271 62.47388184 -3.30478271 62.47388184 -3.61572266 63.97753906 C-5.49776363 72.85486803 -7.57833458 81.32994742 -11.05859375 89.72753906 C-12.2060577 92.49740277 -13.22181399 95.30899801 -14.25 98.125 C-19.22041149 111.06022989 -26.05337849 123.0470713 -33 135 C-34.6812397 137.99203676 -36.34543298 140.99314262 -38 144 C-38.66 144 -39.32 144 -40 144 C-40.20625 144.680625 -40.4125 145.36125 -40.625 146.0625 C-42.46671833 149.99708007 -45.10192187 152.79825082 -48 156 C-49.21074594 157.37287607 -50.41906304 158.74789779 -51.625 160.125 C-52.2128125 160.79402344 -52.800625 161.46304688 -53.40625 162.15234375 C-54.68315279 163.63267468 -55.91246554 165.15400054 -57.125 166.6875 C-60.62164976 171.00003471 -64.10441445 174.34239642 -69 177 C-70.10170004 170.75703309 -70.09369276 166.56864697 -67 161 C-67.66 161 -68.32 161 -69 161 C-69.24878906 161.71542969 -69.49757813 162.43085938 -69.75390625 163.16796875 C-74.98848135 175.06473035 -86.80376556 183.62633769 -98.30078125 188.96875 C-114.1808255 195.03580019 -131.71662574 195.0191669 -147.35546875 188.62890625 C-163.24740788 181.40214658 -174.72167923 169.04492993 -181.89453125 153.09375 C-184.95152922 144.53847653 -186.53513355 136.72567735 -186.4375 127.625 C-186.42920166 126.61840332 -186.42090332 125.61180664 -186.41235352 124.57470703 C-186.23670965 116.82262429 -185.21941725 110.11912803 -182 103 C-181.2884375 101.39318359 -181.2884375 101.39318359 -180.5625 99.75390625 C-174.33667103 87.0478274 -165.41647022 77.80223291 -153 71 C-152.3709375 70.61457031 -151.741875 70.22914063 -151.09375 69.83203125 C-134.6937329 60.44517936 -117.37991222 62.41567993 -100 67 C-99.32710938 67.23533447 -98.65421875 67.47066895 -97.9609375 67.71313477 C-97.31382812 67.80780029 -96.66671875 67.90246582 -96 68 C-93.96302383 66.37873325 -91.96185416 64.71140469 -90 63 C-89.01 63 -88.02 63 -87 63 C-87 62.34 -87 61.68 -87 61 C-86.34 61 -85.68 61 -85 61 C-85 60.34 -85 59.68 -85 59 C-83.27514648 57.73486328 -83.27514648 57.73486328 -80.87109375 56.3203125 C-79.56495117 55.54494141 -79.56495117 55.54494141 -78.23242188 54.75390625 C-77.31009766 54.21636719 -76.38777344 53.67882812 -75.4375 53.125 C-74.54224609 52.59519531 -73.64699219 52.06539063 -72.72460938 51.51953125 C-70.96675746 50.48156155 -69.20558332 49.44919489 -67.44091797 48.42285156 C-65.91773305 47.53496181 -64.40006485 46.63745526 -62.89111328 45.72558594 C-58.32725771 43 -58.32725771 43 -55 43 C-55 42.34 -55 41.68 -55 41 C-53.39850114 40.32694982 -51.79368971 39.66177773 -50.1875 39 C-48.84751953 38.443125 -48.84751953 38.443125 -47.48046875 37.875 C-45 37 -45 37 -42 37 C-42 36.34 -42 35.68 -42 35 C-40.25307205 34.32532438 -38.50231475 33.66055844 -36.75 33 C-35.77546875 32.62875 -34.8009375 32.2575 -33.796875 31.875 C-31 31 -31 31 -27 31 C-27 30.34 -27 29.68 -27 29 C-3.38297872 23 -3.38297872 23 0 23 C0 15.41 0 7.82 0 0 Z " fill="#F7F9F6" transform="translate(453,232)"/>
<path d="M0 0 C3.7095749 3.01788324 7.04970821 6.3141803 10.35400391 9.76757812 C11.48128906 10.93933594 11.48128906 10.93933594 12.63134766 12.13476562 C25.29147129 26.56876455 29.80529144 46.58028993 28.62158203 65.35107422 C27.87472484 72.09595789 25.64168368 78.41512241 23.35400391 84.76757812 C23.04333984 85.734375 22.73267578 86.70117188 22.41259766 87.69726562 C20.05908017 94.47286306 15.99095677 99.37817855 11.35400391 104.76757812 C10.61150391 105.77820313 9.86900391 106.78882813 9.10400391 107.83007812 C-0.85574589 119.51044915 -17.58710334 127.17740994 -32.64599609 128.76757812 C-43.26128044 129.377346 -53.51985484 129.33392773 -63.64599609 125.76757812 C-64.65017578 125.41566406 -65.65435547 125.06375 -66.68896484 124.70117188 C-83.59521856 118.20865619 -96.38347997 105.80428199 -104.64599609 89.76757812 C-106.22715975 86.15686112 -107.55199643 82.55325024 -108.64599609 78.76757812 C-109.00306641 77.58292969 -109.36013672 76.39828125 -109.72802734 75.17773438 C-111.03411797 69.83092587 -110.9880531 64.49547583 -110.95849609 59.01757812 C-110.95358154 57.94862305 -110.94866699 56.87966797 -110.94360352 55.77832031 C-110.83371064 48.395773 -110.26386674 41.72753945 -107.64599609 34.76757812 C-107.29408203 33.76984375 -106.94216797 32.77210938 -106.57958984 31.74414062 C-103.8741817 24.65472126 -100.26902148 18.75919144 -95.64599609 12.76757812 C-94.88287109 11.73632812 -94.11974609 10.70507812 -93.33349609 9.64257812 C-69.8447539 -15.48491352 -28.20460874 -21.1178975 0 0 Z " fill="#B7CAB7" transform="translate(291.64599609375,129.232421875)"/>
<path d="M0 0 C1.0394426 0.00140488 1.0394426 0.00140488 2.09988403 0.00283813 C12.89225208 0.03444712 23.47167628 0.34994258 34.125 2.1875 C35.0217041 2.33815918 35.9184082 2.48881836 36.84228516 2.64404297 C69.28922882 8.2782829 102.87251951 21.61046616 128.125 43.1875 C128.8984375 43.77917969 129.671875 44.37085938 130.46875 44.98046875 C145.04410271 56.24937571 158.66612284 70.0020149 169.125 85.1875 C169.8365625 86.21230469 170.548125 87.23710938 171.28125 88.29296875 C173.27655462 91.23008693 175.21525759 94.19418636 177.125 97.1875 C177.63546875 97.98285156 178.1459375 98.77820313 178.671875 99.59765625 C192.60318576 122.03006256 202.16424388 147.17127621 207.875 172.875 C208.07375732 173.76413086 208.27251465 174.65326172 208.47729492 175.56933594 C211.61359438 190.39450113 212.53468959 204.9579869 212.5 220.0625 C212.49918427 221.40678574 212.49918427 221.40678574 212.49835205 222.77822876 C212.3770903 266.43003527 199.39157832 311.24304598 174.125 347.1875 C173.30332275 348.3775609 172.48170998 349.56766633 171.66015625 350.7578125 C169.20792254 354.2792486 166.68372319 357.74290133 164.125 361.1875 C163.48820312 362.05246094 162.85140625 362.91742188 162.1953125 363.80859375 C146.56979625 383.92095503 127.08585534 400.47516739 105.125 413.1875 C104.04871338 413.81205078 104.04871338 413.81205078 102.95068359 414.44921875 C82.0405917 426.4057261 59.76536097 433.79083991 36.125 438.1875 C34.56591919 438.47898926 34.56591919 438.47898926 32.9753418 438.77636719 C22.40314335 440.52347768 11.8795114 440.58232536 1.1875 440.5625 C-0.23607819 440.56317978 -0.23607819 440.56317978 -1.68841553 440.56387329 C-19.46667157 440.53893175 -36.00453152 439.15020803 -52.875 433.1875 C-52.875 432.5275 -52.875 431.8675 -52.875 431.1875 C-54.855 430.8575 -56.835 430.5275 -58.875 430.1875 C-58.545 428.2075 -58.215 426.2275 -57.875 424.1875 C-51.90171859 423.82947998 -46.99981124 425.44980585 -41.38671875 427.234375 C-27.40954897 431.41033082 -12.84075679 431.59345125 1.625 431.5625 C2.49841034 431.56262085 3.37182068 431.5627417 4.271698 431.56286621 C18.54583441 431.53483969 32.19395461 430.48891215 46.125 427.1875 C46.88006836 427.01669922 47.63513672 426.84589844 48.41308594 426.66992188 C55.24677776 425.10354757 61.66309475 423.13444453 67.984375 420.0703125 C71.87167355 418.46715653 75.98851294 417.8438111 80.125 417.1875 C80.125 416.5275 80.125 415.8675 80.125 415.1875 C83.095 414.5275 86.065 413.8675 89.125 413.1875 C89.125 412.5275 89.125 411.8675 89.125 411.1875 C90.03765625 410.82011719 90.03765625 410.82011719 90.96875 410.4453125 C97.14112911 407.81297435 102.82465449 404.67926997 108.5 401.125 C109.17740234 400.7017041 109.85480469 400.2784082 110.55273438 399.84228516 C113.50072619 397.96874725 116.25649104 396.0810463 118.9765625 393.87890625 C121.125 392.1875 121.125 392.1875 123.125 392.1875 C123.3725 391.56875 123.62 390.95 123.875 390.3125 C125.38529304 387.74500184 126.48591208 387.46934271 129.125 386.1875 C129.99125 385.32125 130.8575 384.455 131.75 383.5625 C132.53375 382.77875 133.3175 381.995 134.125 381.1875 C134.785 381.1875 135.445 381.1875 136.125 381.1875 C136.49625 380.3521875 136.49625 380.3521875 136.875 379.5 C138.35424818 376.76339087 140.05967439 374.51099131 142.125 372.1875 C142.785 372.1875 143.445 372.1875 144.125 372.1875 C144.38796875 371.59453125 144.6509375 371.0015625 144.921875 370.390625 C146.17902509 368.08857093 147.46087918 366.71366617 149.375 364.9375 C154.09690395 360.35303192 157.84465245 355.22402291 161.375 349.6875 C161.9525 348.8625 162.53 348.0375 163.125 347.1875 C163.785 347.1875 164.445 347.1875 165.125 347.1875 C165.38023437 346.31996094 165.63546875 345.45242188 165.8984375 344.55859375 C167.1651985 341.07701813 168.74239143 338.35739414 170.75 335.25 C179.89389947 320.7690061 187.45638893 305.60955404 192.26171875 289.1171875 C192.97316897 286.70276369 193.76516991 284.36338324 194.625 282 C197.10660474 274.56867277 198.60933255 266.86170777 200.125 259.1875 C200.28033203 258.42518066 200.43566406 257.66286133 200.59570312 256.87744141 C205.3732947 232.57066867 204.98843371 205.4572204 200.125 181.1875 C199.95339355 180.32592285 199.78178711 179.4643457 199.60498047 178.57666016 C192.74422809 145.29066851 179.33886169 112.94960244 158.125 86.1875 C157.465 85.8575 156.805 85.5275 156.125 85.1875 C155.69445312 84.46046875 155.26390625 83.7334375 154.8203125 82.984375 C152.88056301 79.78423529 150.54663666 77.15235243 148 74.4375 C147.51208984 73.91309326 147.02417969 73.38868652 146.52148438 72.84838867 C145.06278511 71.28817954 143.59581266 69.73628713 142.125 68.1875 C140.96871094 66.96740234 140.96871094 66.96740234 139.7890625 65.72265625 C131.42527337 57.13241073 122.08529344 49.83285908 112.125 43.1875 C111.28582031 42.62417969 110.44664062 42.06085938 109.58203125 41.48046875 C83.13434805 24.17422997 53.33519893 14.43335447 22.125 10.1875 C21.19558594 10.05601563 20.26617187 9.92453125 19.30859375 9.7890625 C-3.72070372 7.1221329 -27.69309632 9.69923462 -49.875 16.1875 C-51.12667969 16.53425781 -52.37835938 16.88101563 -53.66796875 17.23828125 C-84.47047783 26.05620872 -112.45338246 42.48103846 -135.875 64.1875 C-136.47054687 64.73776855 -137.06609375 65.28803711 -137.6796875 65.85498047 C-146.67709533 74.26549406 -154.29921934 83.3968131 -161.53710938 93.35009766 C-162.63911444 94.86354476 -163.76209425 96.36169646 -164.890625 97.85546875 C-188.01644523 129.24822939 -201.87391051 171.88259865 -202.078125 210.68359375 C-202.08382507 211.55661636 -202.08952515 212.42963898 -202.09539795 213.32911682 C-202.10477533 215.16690895 -202.1113527 217.00471734 -202.11523438 218.8425293 C-202.12486801 221.58739379 -202.15593203 224.33148452 -202.1875 227.07617188 C-202.28300319 242.92034636 -200.18506586 257.99954069 -196.375 273.375 C-196.17519531 274.22384766 -195.97539062 275.07269531 -195.76953125 275.94726562 C-194.49738787 281.20194703 -192.86206398 286.16488667 -190.875 291.1875 C-190.35858282 292.57213739 -189.84430946 293.95757597 -189.33203125 295.34375 C-184.28111925 308.77444453 -178.52575604 321.63124763 -170.57421875 333.62109375 C-169.43629446 335.33975181 -168.33459335 337.08291832 -167.26953125 338.84765625 C-162.54667213 346.64430016 -156.87628533 353.3671296 -150.875 360.1875 C-150.17503906 360.98800781 -149.47507813 361.78851563 -148.75390625 362.61328125 C-147.59969378 363.93131743 -146.44247825 365.24673448 -145.28125 366.55859375 C-144.1133175 367.9114489 -143.01540878 369.32437871 -141.9375 370.75 C-138.93277232 374.30104181 -135.40593559 377.17124316 -131.875 380.1875 C-130.03355138 381.76138771 -128.20028743 383.34489793 -126.375 384.9375 C-125.5190625 385.67484375 -124.663125 386.4121875 -123.78125 387.171875 C-121.875 389.1875 -121.875 389.1875 -121.875 392.1875 C-122.535 392.1875 -123.195 392.1875 -123.875 392.1875 C-124.205 393.5075 -124.535 394.8275 -124.875 396.1875 C-130.74326348 393.16931761 -135.14488485 389.4465385 -139.875 384.875 C-140.54789062 384.23626953 -141.22078125 383.59753906 -141.9140625 382.93945312 C-149.81493113 375.41227423 -157.1378259 367.78809392 -163.875 359.1875 C-164.34631348 358.58728027 -164.81762695 357.98706055 -165.30322266 357.36865234 C-201.0504357 311.55114518 -217.28272134 253.43055845 -211.18359375 195.6796875 C-207.77461446 168.85192753 -199.75123585 143.41169135 -187.875 119.1875 C-187.17117187 117.66962891 -187.17117187 117.66962891 -186.453125 116.12109375 C-182.40348472 107.57817282 -177.31475929 99.89096263 -171.875 92.1875 C-171.41319336 91.53201172 -170.95138672 90.87652344 -170.47558594 90.20117188 C-163.04626664 79.7541703 -154.80982795 70.36516769 -145.875 61.1875 C-145.03839844 60.3109375 -144.20179688 59.434375 -143.33984375 58.53125 C-138.26020165 53.29930823 -132.87767132 48.35192415 -126.875 44.1875 C-126.215 44.1875 -125.555 44.1875 -124.875 44.1875 C-124.875 43.5275 -124.875 42.8675 -124.875 42.1875 C-122.45105215 40.42016587 -120.03142734 38.78900402 -117.5 37.1875 C-116.73486084 36.69983154 -115.96972168 36.21216309 -115.18139648 35.7097168 C-87.10399965 18.01080144 -57.99161773 6.22724099 -25.06494141 1.50219727 C-23.1164034 1.22218997 -21.17117883 0.91933971 -19.2265625 0.61328125 C-12.85368078 -0.15727531 -6.40944762 -0.01114587 0 0 Z " fill="#A5C39E" transform="translate(249.875,28.8125)"/>
<path d="M0 0 C0.33 0 0.66 0 1 0 C1.46976181 20.72372306 1.24679275 40.60319334 -3 61 C-3.30478271 62.47388184 -3.30478271 62.47388184 -3.61572266 63.97753906 C-5.49776363 72.85486803 -7.57833458 81.32994742 -11.05859375 89.72753906 C-12.2060577 92.49740277 -13.22181399 95.30899801 -14.25 98.125 C-19.22041149 111.06022989 -26.05337849 123.0470713 -33 135 C-34.6812397 137.99203676 -36.34543298 140.99314262 -38 144 C-38.66 144 -39.32 144 -40 144 C-40.309375 145.0209375 -40.309375 145.0209375 -40.625 146.0625 C-42.46671833 149.99708007 -45.10192187 152.79825082 -48 156 C-49.21074594 157.37287607 -50.41906304 158.74789779 -51.625 160.125 C-52.2128125 160.79402344 -52.800625 161.46304688 -53.40625 162.15234375 C-54.68315279 163.63267468 -55.91246554 165.15400054 -57.125 166.6875 C-60.62164976 171.00003471 -64.10441445 174.34239642 -69 177 C-69.76512373 172.66429885 -70.15261327 169.26466911 -69 165 C-68.855625 164.360625 -68.71125 163.72125 -68.5625 163.0625 C-67.57249147 159.43246871 -66.33821718 155.90057035 -65.015625 152.37890625 C-64.65984375 151.42886719 -64.3040625 150.47882813 -63.9375 149.5 C-63.59589844 148.6028125 -63.25429688 147.705625 -62.90234375 146.78125 C-57.30922386 129.54185018 -60.64750573 110.55373868 -68.640625 94.7578125 C-74.20148898 85.3771027 -81.78607565 78.45486457 -90.8359375 72.5078125 C-92.7965252 71.14177125 -94.37917339 69.74630996 -96 68 C-90.375 63 -90.375 63 -87 63 C-87 62.34 -87 61.68 -87 61 C-86.34 61 -85.68 61 -85 61 C-85 60.34 -85 59.68 -85 59 C-83.27514648 57.73486328 -83.27514648 57.73486328 -80.87109375 56.3203125 C-79.56495117 55.54494141 -79.56495117 55.54494141 -78.23242188 54.75390625 C-77.31009766 54.21636719 -76.38777344 53.67882812 -75.4375 53.125 C-74.54224609 52.59519531 -73.64699219 52.06539063 -72.72460938 51.51953125 C-70.96675746 50.48156155 -69.20558332 49.44919489 -67.44091797 48.42285156 C-65.91773305 47.53496181 -64.40006485 46.63745526 -62.89111328 45.72558594 C-58.32725771 43 -58.32725771 43 -55 43 C-55 42.34 -55 41.68 -55 41 C-53.39850114 40.32694982 -51.79368971 39.66177773 -50.1875 39 C-49.29417969 38.62875 -48.40085937 38.2575 -47.48046875 37.875 C-45 37 -45 37 -42 37 C-42 36.34 -42 35.68 -42 35 C-40.25307205 34.32532438 -38.50231475 33.66055844 -36.75 33 C-35.77546875 32.62875 -34.8009375 32.2575 -33.796875 31.875 C-31 31 -31 31 -27 31 C-27 30.34 -27 29.68 -27 29 C-3.38297872 23 -3.38297872 23 0 23 C0 15.41 0 7.82 0 0 Z " fill="#DEEADC" transform="translate(453,232)"/>
<path d="M0 0 C4.45313523 4.12729606 6.85173568 8.91355188 9.4140625 14.3046875 C10.66874827 16.56653599 12.15612444 18.39201518 13.8125 20.375 C16.38427307 23.72748989 17.48343261 26.16139736 17.1640625 30.4140625 C16.01750087 34.1515556 13.43202685 36.81026746 10.5625 39.375 C8.15128742 40.58060629 6.50303653 40.57608115 3.8125 40.625 C2.97203125 40.65078125 2.1315625 40.6765625 1.265625 40.703125 C-1.4375 40.375 -1.4375 40.375 -4.109375 38.85546875 C-9.50504742 36.45528114 -14.93461808 37.28463363 -20.73828125 37.58007812 C-26.55130461 37.75056021 -29.85073308 37.36475916 -34.4375 33.375 C-36.81052167 30.44827328 -37.39716626 28.69190796 -37.875 24.9375 C-37.33705599 20.55709874 -36.29688601 18.73477856 -33.4375 15.375 C-31.48511244 13.85878413 -29.47902874 12.44130685 -27.45703125 11.01953125 C-25.29203966 9.2565497 -23.8590042 7.46172558 -22.25 5.1875 C-16.72333598 -2.49985447 -8.66536641 -4.09635503 0 0 Z " fill="#629562" transform="translate(337.4375,357.625)"/>
<path d="M0 0 C3.62678048 4.33198779 4.7361616 7.50589329 4.65234375 13.09375 C3.88998883 18.00834868 1.53730972 22.31710465 -0.75 26.6875 C-1.41 26.6875 -2.07 26.6875 -2.75 26.6875 C-2.8428125 27.7084375 -2.8428125 27.7084375 -2.9375 28.75 C-4.03538855 32.71928937 -6.24023975 35.47389555 -8.75 38.6875 C-13.86273145 38.07141186 -18.13017507 36.52419836 -22.8125 34.5 C-23.50666016 34.22091797 -24.20082031 33.94183594 -24.91601562 33.65429688 C-29.94719024 31.48988842 -32.46281357 29.04829962 -35.75 24.6875 C-36.41 24.3575 -37.07 24.0275 -37.75 23.6875 C-40.10687987 18.60160134 -39.95498641 15.02386839 -38.75 9.6875 C-36.55308354 6.80878188 -34.21416778 4.80826017 -30.75 3.6875 C-26.52526664 4.05486812 -22.7316901 5.26546782 -18.75 6.6875 C-18.6571875 5.8521875 -18.6571875 5.8521875 -18.5625 5 C-17.3891063 1.660341 -15.40553186 -0.02750747 -12.75 -2.3125 C-8.07149049 -4.42537526 -3.79872943 -3.19438611 0 0 Z " fill="#D0DFCC" transform="translate(120.75,184.3125)"/>
<path d="M0 0 C0.66 0.99 1.32 1.98 2 3 C2.33 3 2.66 3 3 3 C3.0825 4.299375 3.165 5.59875 3.25 6.9375 C3.73054909 11.4179136 5.07222084 14.93988692 7.0625 18.95703125 C7.98469729 20.96665284 8.49589123 22.85419186 9 25 C9.63654342 26.3479743 10.29605388 27.68596724 11 29 C10.01 29.495 10.01 29.495 9 30 C8.21625 29.195625 7.4325 28.39125 6.625 27.5625 C3.13567515 24.15625431 1.51072854 23.81107082 -3.25 23.6875 C-8.36192185 23.75423527 -11.14764678 24.42281487 -15 28 C-16.22550673 29.67832108 -17.36850925 31.39751729 -18.51171875 33.1328125 C-20.87091604 36.09264532 -23.85159166 38.13449984 -26.9140625 40.32421875 C-29.0386381 42.03104072 -30.46705756 43.75917013 -32 46 C-32.125 41.25 -32.125 41.25 -31 39 C-31.495 38.54625 -31.99 38.0925 -32.5 37.625 C-34 36 -34 36 -34 34 C-32.906875 33.773125 -31.81375 33.54625 -30.6875 33.3125 C-26.98799441 32.32134558 -26.98799441 32.32134558 -25.0625 29.875 C-23.34946305 25.23972355 -23.10288203 21.27968938 -24.90234375 16.70703125 C-25.87140328 14.75856636 -26.88649034 12.86910549 -28 11 C-26.35 11.33 -24.7 11.66 -23 12 C-22.67 11.01 -22.34 10.02 -22 9 C-21.01 10.485 -21.01 10.485 -20 12 C-17.89612236 14.85393478 -17.89612236 14.85393478 -15 17 C-10.87187018 17.14484666 -8.86470286 16.72448077 -5.6875 14.0625 C-3.68810398 10.43396648 -3.08251415 7.18142412 -2.4921875 3.109375 C-2.32976562 2.41328125 -2.16734375 1.7171875 -2 1 C-1.34 0.67 -0.68 0.34 0 0 Z " fill="#F4FAF4" transform="translate(332,333)"/>
<path d="M0 0 C3.91563037 0.83311284 5.41172371 2.59406846 7.9375 5.625 C9.96510879 9.68021758 9.55918566 14.59652849 8.25390625 18.85546875 C6.1258338 23.56195264 3.7715454 26.44494031 -1.0625 28.625 C-4.6875 28.75 -4.6875 28.75 -8.0625 27.625 C-11.48287748 24.20462252 -12.32990403 21.32390106 -12.5 16.625 C-12.2266835 10.74428693 -10.54857298 6.80036142 -6.25 2.75 C-3.0625 0.625 -3.0625 0.625 0 0 Z " fill="#629363" transform="translate(348.0625,325.375)"/>
<path d="M0 0 C3.52813233 2.70239923 5.20916883 4.68206181 6 9 C6.50718632 14.03860507 6.57784624 17.86494488 4.25 22.4375 C-0.37861915 27.70898293 -0.37861915 27.70898293 -4.4375 28.4375 C-7.93559099 27.84026495 -9.50696698 26.49303302 -12 24 C-14.79155176 19.48034476 -14.52850551 14.14091723 -14 9 C-12.00867008 1.55297167 -7.7753312 -1.50050251 0 0 Z " fill="#629562" transform="translate(324,323)"/>
<path d="M0 0 C5.01501397 0.98509203 6.90679553 3.48736049 9.8125 7.5 C11.39810395 12.54510346 11.06451017 16.39383086 9 21.125 C6.1177905 24.07926473 4.5080239 24.76993446 0.46484375 24.98828125 C-3.04621417 24.4508032 -4.4670914 22.43790575 -6.5 19.6875 C-8.80349087 15.62896847 -9.35686955 11.26639667 -8.5 6.6875 C-6.60164414 2.6789182 -4.43202426 0.87057619 0 0 Z " fill="#5F935E" transform="translate(298.5,342.3125)"/>
<path d="M0 0 C2.79861949 2.80497999 3.43141053 4.96556003 3.4375 8.875 C3.28302904 13.64253547 2.26186275 16.38550344 -1 20 C-3.953406 22.40935753 -5.29761516 23.0140477 -9.125 22.9375 C-12.50962168 21.83381902 -13.20520763 21.00523373 -15 18 C-15.75035325 13.47581126 -15.54646353 9.28418929 -13.75 5.0625 C-9.42528205 -0.03448901 -6.59538237 -0.73282026 0 0 Z " fill="#619361" transform="translate(367,352)"/>
<path d="M0 0 C0.66 0 1.32 0 2 0 C2.23074219 0.68707031 2.46148437 1.37414062 2.69921875 2.08203125 C4.61840588 7.70167606 4.61840588 7.70167606 8.5 12 C9.7375 12.495 9.7375 12.495 11 13 C11.763125 13.391875 12.52625 13.78375 13.3125 14.1875 C13.869375 14.455625 14.42625 14.72375 15 15 C15 15.66 15 16.32 15 17 C13.7625 17.268125 12.525 17.53625 11.25 17.8125 C8.0981003 18.94137188 7.18759836 19.65057228 5.578125 22.6484375 C4.59733701 25.41312249 3.73287554 28.16010728 3 31 C2.01 31 1.02 31 0 31 C-0.66 27.7 -1.32 24.4 -2 21 C-3.44375 20.525625 -4.8875 20.05125 -6.375 19.5625 C-8.67730051 18.80602983 -10.83217629 18.08391186 -13 17 C-12.505 15.515 -12.505 15.515 -12 14 C-10.2578125 13.296875 -10.2578125 13.296875 -8.125 12.75 C-4.42797873 11.50002322 -4.12563019 11.22289226 -2.0625 7.5625 C-0.91365348 3.81049351 -0.91365348 3.81049351 0 0 Z " fill="#D5E1D2" transform="translate(385,144)"/>
<path d="M0 0 C0.66 0 1.32 0 2 0 C2.1959375 0.53109375 2.391875 1.0621875 2.59375 1.609375 C4.85858492 6.95907127 7.04092873 9.14141508 12.390625 11.40625 C12.92171875 11.6021875 13.4528125 11.798125 14 12 C14 12.66 14 13.32 14 14 C12.68 14 11.36 14 10 14 C10 14.66 10 15.32 10 16 C9.236875 16.144375 8.47375 16.28875 7.6875 16.4375 C3.95212255 18.60923108 3.62907285 21.0782752 2.48046875 25.1015625 C2.32191406 25.72804687 2.16335938 26.35453125 2 27 C1.34 27 0.68 27 0 27 C-0.11214844 26.39671875 -0.22429687 25.7934375 -0.33984375 25.171875 C-1.57074184 20.0741133 -1.57074184 20.0741133 -5.203125 16.51171875 C-7.44665389 15.54163943 -9.65948485 14.70166387 -12 14 C-12 13.34 -12 12.68 -12 12 C-10.9275 11.54625 -9.855 11.0925 -8.75 10.625 C-8.11320312 10.34398437 -7.47640625 10.06296875 -6.8203125 9.7734375 C-5 9 -5 9 -2.625 8.25 C-0.58020969 6.95843703 -0.58020969 6.95843703 -0.25 3.375 C-0.1675 2.26125 -0.085 1.1475 0 0 Z " fill="#D4E0D0" transform="translate(408,179)"/>
<path d="M0 0 C2.77410214 0.38263478 3.76887672 0.71340714 5.5625 2.9375 C6.036875 3.618125 6.51125 4.29875 7 5 C7.99 5.66 8.98 6.32 10 7 C8.741875 7.268125 7.48375 7.53625 6.1875 7.8125 C3.01039023 8.60958408 0.91389413 9.18544981 -1 12 C-2.44761859 16.34285577 -2.51162535 20.46210562 -2 25 C-0.72482126 27.85998345 -0.72482126 27.85998345 2 29 C4.81916861 29.00538009 7.2065214 28.55869572 10 28 C9.67 28.99 9.34 29.98 9 31 C5.04 31.495 5.04 31.495 1 32 C1 32.99 1 33.98 1 35 C0.34 35 -0.32 35 -1 35 C-1.33 35.66 -1.66 36.32 -2 37 C-3.98 34.03 -5.96 31.06 -8 28 C-6.68 28 -5.36 28 -4 28 C-4.02320313 27.04738281 -4.04640625 26.09476562 -4.0703125 25.11328125 C-4.08835937 23.85902344 -4.10640625 22.60476563 -4.125 21.3125 C-4.14820313 20.07113281 -4.17140625 18.82976562 -4.1953125 17.55078125 C-3.89783668 12.1426709 -1.84236591 8.52194577 1 4 C0.34 3.34 -0.32 2.68 -1 2 C-0.67 1.34 -0.34 0.68 0 0 Z M12 25 C12.33 25.99 12.66 26.98 13 28 C12.01 27.67 11.02 27.34 10 27 C10.66 26.34 11.32 25.68 12 25 Z " fill="#ECF8EC" transform="translate(355,345)"/>
<path d="M0 0 C1.10844919 3.32534757 0.84454356 5.62182575 0 9 C-1.32 9 -2.64 9 -4 9 C-4 9.66 -4 10.32 -4 11 C-5.62626404 12.38232443 -7.2925002 13.71937515 -9 15 C-9.66 14.67 -10.32 14.34 -11 14 C-10.67 13.34 -10.34 12.68 -10 12 C-9.34 12 -8.68 12 -8 12 C-7.67 9.03 -7.34 6.06 -7 3 C-6.21625 2.87625 -5.4325 2.7525 -4.625 2.625 C-1.85942178 2.20882007 -1.85942178 2.20882007 0 0 Z " fill="#9FC097" transform="translate(113,85)"/>
<path d="M0 0 C2.77410214 0.38263478 3.76887672 0.71340714 5.5625 2.9375 C6.036875 3.618125 6.51125 4.29875 7 5 C7.99 5.66 8.98 6.32 10 7 C7.02148438 7.63476562 7.02148438 7.63476562 4.04296875 8.26953125 C1.58104541 9.1497983 0.55307441 9.89225615 -1 12 C-1.79162493 14.72486722 -1.79162493 14.72486722 -2.1875 17.6875 C-2.34605469 18.68136719 -2.50460937 19.67523438 -2.66796875 20.69921875 C-2.77753906 21.45847656 -2.88710938 22.21773438 -3 23 C-3.33 23 -3.66 23 -4 23 C-4.30409681 15.24553144 -3.16982704 10.63381575 1 4 C0.34 3.34 -0.32 2.68 -1 2 C-0.67 1.34 -0.34 0.68 0 0 Z " fill="#E6F0E5" transform="translate(355,345)"/>
<path d="M0 0 C0.33 0.99 0.66 1.98 1 3 C-0.5625 6.125 -0.5625 6.125 -3 9 C-6.25 9.875 -6.25 9.875 -9 10 C-9.375 6.75 -9.375 6.75 -9 3 C-4.09090909 -1.36363636 -4.09090909 -1.36363636 0 0 Z " fill="#9FC096" transform="translate(127,75)"/>
<path d="M0 0 C0.33 0.66 0.66 1.32 1 2 C0.38511719 2.86882812 -0.22976562 3.73765625 -0.86328125 4.6328125 C-1.67989862 5.79672691 -2.49629301 6.96079778 -3.3125 8.125 C-3.71662109 8.69476563 -4.12074219 9.26453125 -4.53710938 9.8515625 C-6.46871372 12.61548416 -8.12208037 15.24650843 -9.625 18.28125 C-11.23533018 21.46531194 -13.10783587 22.96766845 -16 25 C-14.59220355 19.81962543 -12.27469668 16.17535719 -9.125 11.9375 C-8.69058594 11.33873047 -8.25617188 10.73996094 -7.80859375 10.12304688 C-5.29362047 6.67534326 -2.69229604 3.31215025 0 0 Z " fill="#E9F7E6" transform="translate(93,115)"/>
<path d="M0 0 C1.051875 0.12375 2.10375 0.2475 3.1875 0.375 C2.8575 1.035 2.5275 1.695 2.1875 2.375 C-0.375 3 -0.375 3 -2.8125 3.375 C-3.1425 5.025 -3.4725 6.675 -3.8125 8.375 C-4.4725 8.375 -5.1325 8.375 -5.8125 8.375 C-5.8125 12.005 -5.8125 15.635 -5.8125 19.375 C-8.64725757 16.54024243 -8.79644687 14.53820678 -9.1875 10.5625 C-9.1347468 7.39144638 -8.61771837 5.45306372 -6.75 2.875 C-3.8125 0.375 -3.8125 0.375 0 0 Z " fill="#719470" transform="translate(298.8125,342.625)"/>
<path d="M0 0 C22.80127986 -0.20638953 22.80127986 -0.20638953 32 1 C32 1.33 32 1.66 32 2 C21.53680693 3.20160344 11.47349744 2.76405986 1 2 C0.67 1.34 0.34 0.68 0 0 Z " fill="#E1F0DE" transform="translate(240,37)"/>
<path d="M0 0 C-2.99793929 2.80452386 -5.62142263 4.32800918 -9.5 5.5 C-13.4228059 6.68853225 -15.87300716 8.30731172 -19 11 C-21.8125 12.25 -21.8125 12.25 -24 13 C-24.33 12.34 -24.66 11.68 -25 11 C-22.08411598 9.37359266 -19.16715706 7.74912272 -16.25 6.125 C-15.425 5.66480469 -14.6 5.20460938 -13.75 4.73046875 C-12.55117187 4.06337891 -12.55117187 4.06337891 -11.328125 3.3828125 C-10.5949707 2.97434082 -9.86181641 2.56586914 -9.10644531 2.14501953 C-8.06375488 1.57823486 -8.06375488 1.57823486 -7 1 C-6.31260742 0.60022949 -5.62521484 0.20045898 -4.91699219 -0.21142578 C-3 -1 -3 -1 0 0 Z " fill="#ABC4A5" transform="translate(167,49)"/>
<path d="M0 0 C0 1.98 0 3.96 0 6 C-0.53625 5.67 -1.0725 5.34 -1.625 5 C-4.70340819 3.70382813 -6.67716638 3.60125997 -10 4 C-13.32808239 5.88413915 -13.32808239 5.88413915 -16 8 C-15.6875 5.625 -15.6875 5.625 -15 3 C-11.31513232 0.54342155 -9.34986453 0.92368659 -5 1 C-0.25 0 -0.25 0 0 0 Z " fill="#E7F6E8" transform="translate(355,323)"/>
<path d="M0 0 C3.2828659 -0.36795695 4.58663012 -0.3231932 7.23828125 1.75 C7.92277344 2.4925 8.60726563 3.235 9.3125 4 C10.00988281 4.7425 10.70726562 5.485 11.42578125 6.25 C11.94527344 6.8275 12.46476562 7.405 13 8 C12.01 9.485 12.01 9.485 11 11 C9.16365304 9.35742342 7.3308593 7.71117305 5.5 6.0625 C4.97535156 5.59392578 4.45070313 5.12535156 3.91015625 4.64257812 C2.5878256 3.44904592 1.29166061 2.22665821 0 1 C0 0.67 0 0.34 0 0 Z " fill="#A7C2A0" transform="translate(378,83)"/>
<path d="M0 0 C0 3 0 3 -1.71484375 4.8671875 C-3.19259066 6.2020942 -4.67175126 7.53543764 -6.15234375 8.8671875 C-8.24255534 11.27998989 -8.65615741 12.86721193 -9 16 C-10.32 16.33 -11.64 16.66 -13 17 C-13 13.34196352 -12.27649012 12.8229015 -9.875 10.1875 C-9.24207031 9.49011719 -8.60914062 8.79273437 -7.95703125 8.07421875 C-5.35985436 5.32152229 -2.7089358 2.6428642 0 0 Z " fill="#EDF9E9" transform="translate(111,95)"/>
<path d="M0 0 C1.32 1.32 2.64 2.64 4 4 C2.35 5.65 0.7 7.3 -1 9 C-2.38111722 6.7252187 -3.05694702 5.49828639 -2.75 2.8125 C-2 1 -2 1 0 0 Z " fill="#D4E4D2" transform="translate(386,400)"/>
<path d="M0 0 C0.33 0.66 0.66 1.32 1 2 C-0.97233721 6.05424872 -3.65901948 9.00168415 -7 12 C-7.66 12 -8.32 12 -9 12 C-9.33 12.66 -9.66 13.32 -10 14 C-10.33 13.34 -10.66 12.68 -11 12 C-3.70159453 3.55353075 -3.70159453 3.55353075 0 0 Z " fill="#ABC4A5" transform="translate(105,89)"/>
<path d="M0 0 C0.6875 1.75 0.6875 1.75 1 4 C-0.30078125 5.921875 -0.30078125 5.921875 -2 8 C-2.78233233 9.72688742 -3.51162313 11.47873647 -4.1875 13.25 C-4.53167969 14.14203125 -4.87585937 15.0340625 -5.23046875 15.953125 C-5.48441406 16.62859375 -5.73835938 17.3040625 -6 18 C-6.66 18 -7.32 18 -8 18 C-6.65150163 13.64029169 -4.95092154 9.68658562 -2.875 5.625 C-2.33617188 4.56539062 -1.79734375 3.50578125 -1.2421875 2.4140625 C-0.83226563 1.61742187 -0.42234375 0.82078125 0 0 Z " fill="#B0C5A8" transform="translate(67,138)"/>
<path d="M0 0 C0.66015625 1.76953125 0.66015625 1.76953125 1 4 C-0.49452201 6.80877094 -2.56998416 8.96157611 -5 11 C-8.375 11.9375 -8.375 11.9375 -11 12 C-8.42667974 9.42667974 -5.85276855 6.85611472 -3.25 4.3125 C-0.98059858 2.21386687 -0.98059858 2.21386687 0 0 Z " fill="#6F9771" transform="translate(315,362)"/>
<path d="M0 0 C2 3 2 3 3 6 C2.360625 6.103125 1.72125 6.20625 1.0625 6.3125 C0.381875 6.539375 -0.29875 6.76625 -1 7 C-1.33 7.99 -1.66 8.98 -2 10 C-3.32 7.36 -4.64 4.72 -6 2 C-3.525 2.495 -3.525 2.495 -1 3 C-0.67 2.01 -0.34 1.02 0 0 Z " fill="#EBF6E9" transform="translate(310,342)"/>
<path d="M0 0 C0.33 1.65 0.66 3.3 1 5 C-2.55780196 4.39009109 -5.6828589 3.4216319 -9 2 C-4 -1.33333333 -4 -1.33333333 0 0 Z " fill="#A8C5A1" transform="translate(335,51)"/>
<path d="M0 0 C1.09570312 0.10183594 2.19140625 0.20367187 3.3203125 0.30859375 C4.16335938 0.39238281 5.00640625 0.47617187 5.875 0.5625 C5.545 1.5525 5.215 2.5425 4.875 3.5625 C4.545 3.2325 4.215 2.9025 3.875 2.5625 C-2.20968557 2.32873077 -2.20968557 2.32873077 -8.125 3.5625 C-8.125 2.5725 -8.125 1.5825 -8.125 0.5625 C-5.28943413 -0.85528293 -3.1341294 -0.30007622 0 0 Z " fill="#E0F0E0" transform="translate(320.125,321.4375)"/>
<path d="M0 0 C0 0.33 0 0.66 0 1 C-0.90363281 1.13277344 -1.80726563 1.26554688 -2.73828125 1.40234375 C-4.50751953 1.66724609 -4.50751953 1.66724609 -6.3125 1.9375 C-8.07013672 2.19853516 -8.07013672 2.19853516 -9.86328125 2.46484375 C-13.01641403 2.92093031 -13.01641403 2.92093031 -16 4 C-18.3406065 3.72230092 -20.67624308 3.39460023 -23 3 C-23 2.67 -23 2.34 -23 2 C-15.27279225 0.76892281 -7.8316181 -0.2700558 0 0 Z " fill="#828382" transform="translate(238,14)"/>
<path d="M0 0 C0.99 0.495 0.99 0.495 2 1 C5.86061033 2.28687011 8.94150283 2.13757618 13 2 C12.67 2.66 12.34 3.32 12 4 C4.95502499 5.50138812 4.95502499 5.50138812 1.5 3.6875 C0 2 0 2 0 0 Z " fill="#799A79" transform="translate(293,362)"/>
<path d="M0 0 C1.921875 0.79296875 1.921875 0.79296875 4 2 C5.53624995 6.07106237 6.2632782 9.65590962 6 14 C4.06061181 11.09091772 3.03225043 8.59137621 1.875 5.3125 C1.52179688 4.31863281 1.16859375 3.32476562 0.8046875 2.30078125 C0.53914063 1.54152344 0.27359375 0.78226563 0 0 Z " fill="#AAC2A2" transform="translate(435,160)"/>
<path d="M0 0 C0.99 0.66 1.98 1.32 3 2 C1.5437455 2.67119549 0.08492133 3.33681807 -1.375 4 C-2.59316406 4.556875 -2.59316406 4.556875 -3.8359375 5.125 C-6 6 -6 6 -8 6 C-7.375 4.125 -7.375 4.125 -6 2 C-3.0625 0.625 -3.0625 0.625 0 0 Z " fill="#B0C6AC" transform="translate(337,448)"/>
<path d="M0 0 C0.66 0.33 1.32 0.66 2 1 C0.35 4.63 -1.3 8.26 -3 12 C-3.66 11.67 -4.32 11.34 -5 11 C-4.67 9.68 -4.34 8.36 -4 7 C-3.34 7 -2.68 7 -2 7 C-1.855625 6.030625 -1.71125 5.06125 -1.5625 4.0625 C-1 1 -1 1 0 0 Z " fill="#ACC4A6" transform="translate(443,336)"/>
<path d="M0 0 C0.86625 0.4640625 0.86625 0.4640625 1.75 0.9375 C3.9207821 2.07077603 3.9207821 2.07077603 6.125 2.4375 C8 3 8 3 10 6 C9.67 6.99 9.34 7.98 9 9 C7.49704815 7.69088122 5.99770689 6.37761608 4.5 5.0625 C3.6646875 4.33160156 2.829375 3.60070312 1.96875 2.84765625 C1.3190625 2.23792969 0.669375 1.62820313 0 1 C0 0.67 0 0.34 0 0 Z " fill="#DBE9D9" transform="translate(112,404)"/>
<path d="M0 0 C0.66 0 1.32 0 2 0 C1.69320313 0.54140625 1.38640625 1.0828125 1.0703125 1.640625 C-0.15628211 4.34450508 -0.63743776 6.82462658 -1.125 9.75 C-1.29257812 10.73484375 -1.46015625 11.7196875 -1.6328125 12.734375 C-1.75398438 13.48203125 -1.87515625 14.2296875 -2 15 C-2.33 15 -2.66 15 -3 15 C-3.37379162 5.46831364 -3.37379162 5.46831364 -1 1 C-0.67 0.67 -0.34 0.34 0 0 Z " fill="#DDECDB" transform="translate(354,353)"/>
<path d="M0 0 C1.65 0 3.3 0 5 0 C5 0.66 5 1.32 5 2 C6.65 1.67 8.3 1.34 10 1 C10.33 1.66 10.66 2.32 11 3 C7.75 3.75 7.75 3.75 4 4 C1.5625 2.0625 1.5625 2.0625 0 0 Z " fill="#7A9B7A" transform="translate(313,347)"/>
<path d="M0 0 C0.66 0.33 1.32 0.66 2 1 C1.09515208 2.15518918 0.1755794 3.29885406 -0.75 4.4375 C-1.26046875 5.07558594 -1.7709375 5.71367188 -2.296875 6.37109375 C-4.19667629 8.18810554 -5.43586908 8.60423197 -8 9 C-7.04270084 7.87411986 -6.08412105 6.7493285 -5.125 5.625 C-4.59132813 4.99851562 -4.05765625 4.37203125 -3.5078125 3.7265625 C-2.38567993 2.44163349 -1.20628025 1.20628025 0 0 Z " fill="#7A7A7A" transform="translate(98,74)"/>
<path d="M0 0 C1.46067199 0.45082469 2.91848032 0.91093537 4.375 1.375 C5.18710937 1.63023438 5.99921875 1.88546875 6.8359375 2.1484375 C9 3 9 3 11 5 C8.66666667 5 6.33333333 5 4 5 C4 4.34 4 3.68 4 3 C2.68 2.67 1.36 2.34 0 2 C0 1.34 0 0.68 0 0 Z " fill="#A7C29E" transform="translate(328,44)"/>
<path d="M0 0 C0.33 0.66 0.66 1.32 1 2 C-1.52475462 3.26237731 -3.31200466 3.09856404 -6.125 3.0625 C-7.03507812 3.05347656 -7.94515625 3.04445313 -8.8828125 3.03515625 C-9.58148438 3.02355469 -10.28015625 3.01195312 -11 3 C-7.24528933 -0.16492205 -4.90567888 -0.28301994 0 0 Z " fill="#709774" transform="translate(347,395)"/>
<path d="M0 0 C-1.97420135 2.52259061 -2.96745642 2.9929808 -6.1875 3.6875 C-7.5796875 3.8421875 -7.5796875 3.8421875 -9 4 C-6.73455663 -1.01633889 -5.27613404 -1.24961069 0 0 Z " fill="#719D75" transform="translate(366,371)"/>
<path d="M0 0 C0.66 0 1.32 0 2 0 C1.01 2.97 0.02 5.94 -1 9 C-1.99 9 -2.98 9 -4 9 C-4 7 -4 7 -2 5 C-1.29289322 3.35008418 -0.62056011 1.68437744 0 0 Z " fill="#6D936F" transform="translate(355,340)"/>
<path d="M0 0 C0.33 0.66 0.66 1.32 1 2 C-1.16798732 7.4770206 -1.16798732 7.4770206 -4.1875 9.375 C-4.785625 9.58125 -5.38375 9.7875 -6 10 C-4.6302836 6.00499382 -2.74277578 3.19990508 0 0 Z " fill="#ADC4A6" transform="translate(79,120)"/>
<path d="M0 0 C0.185625 0.8971875 0.185625 0.8971875 0.375 1.8125 C0.95475985 4.26231348 0.95475985 4.26231348 3 7 C0 7 0 7 -1.6875 5.5 C-2.120625 5.005 -2.55375 4.51 -3 4 C-2.67 3.01 -2.34 2.02 -2 1 C-1.34 0.67 -0.68 0.34 0 0 Z " fill="#E3F0DF" transform="translate(102,387)"/>
<path d="M0 0 C0.66 0 1.32 0 2 0 C2.66 2.64 3.32 5.28 4 8 C2.68 7.67 1.36 7.34 0 7 C0 4.69 0 2.38 0 0 Z " fill="#A9C3A4" transform="translate(450,180)"/>
<path d="M0 0 C1.1725131 0.95117134 2.33787015 1.91117009 3.5 2.875 C4.47453125 3.67550781 4.47453125 3.67550781 5.46875 4.4921875 C5.9740625 4.98976563 6.479375 5.48734375 7 6 C7 6.66 7 7.32 7 8 C4.13792848 6.71700242 1.9754912 5.469364 0 3 C0 2.01 0 1.02 0 0 Z " fill="#AEC6A8" transform="translate(402,95)"/>
<path d="M0 0 C5.57142857 5.14285714 5.57142857 5.14285714 6 9 C3.5067466 8.00269864 2.22532561 7.34925469 0.75 5.0625 C0 3 0 3 0 0 Z " fill="#739975" transform="translate(338,359)"/>
<path d="M0 0 C0.99 0.33 1.98 0.66 3 1 C2.34 2.65 1.68 4.3 1 6 C0.01 6 -0.98 6 -2 6 C-1.125 1.125 -1.125 1.125 0 0 Z " fill="#E2F4E3" transform="translate(310,326)"/>
<path d="M0 0 C-1.28650706 0.69710731 -2.57940665 1.38242876 -3.875 2.0625 C-4.95394531 2.63677734 -4.95394531 2.63677734 -6.0546875 3.22265625 C-6.69664062 3.47917969 -7.33859375 3.73570312 -8 4 C-8.66 3.67 -9.32 3.34 -10 3 C-6.81859267 -0.48439851 -4.56758339 -1.41752588 0 0 Z " fill="#B2C7AF" transform="translate(352,444)"/>
<path d="M0 0 C0.99 0.33 1.98 0.66 3 1 C1.07423885 3.43929746 -0.80090595 5.80090595 -3 8 C-3.36923077 3.44615385 -3.36923077 3.44615385 -1.5 1.1875 C-1.005 0.795625 -0.51 0.40375 0 0 Z " fill="#E8F8E8" transform="translate(303,371)"/>
<path d="M0 0 C0.66 0 1.32 0 2 0 C2 0.66 2 1.32 2 2 C2.99 2.33 3.98 2.66 5 3 C5.33 4.98 5.66 6.96 6 9 C3.59927045 6.11912454 1.52708963 3.43595166 0 0 Z " fill="#B4C7AE" transform="translate(66,358)"/>
<path d="M0 0 C0 0.99 0 1.98 0 3 C-2.5 5.1875 -2.5 5.1875 -5 7 C-5.66 6.34 -6.32 5.68 -7 5 C-2.25 1.125 -2.25 1.125 0 0 Z " fill="#729A74" transform="translate(323,356)"/>
<path d="M0 0 C0.66 0.33 1.32 0.66 2 1 C-0.97 3.475 -0.97 3.475 -4 6 C-4.99 5.34 -5.98 4.68 -7 4 C-1.7265625 0.77734375 -1.7265625 0.77734375 0 0 Z " fill="#929292" transform="translate(147,39)"/>
<path d="M0 0 C1.32 0.66 2.64 1.32 4 2 C-0.75 5 -0.75 5 -3 5 C-1.125 1.125 -1.125 1.125 0 0 Z " fill="#AEC4AA" transform="translate(356,437)"/>
<path d="M0 0 C2.91517292 1.07401108 4.77810176 1.77810176 7 4 C6.67 4.99 6.34 5.98 6 7 C4.02 4.69 2.04 2.38 0 0 Z " fill="#B3C7AF" transform="translate(96,399)"/>
<path d="M0 0 C0.66 0 1.32 0 2 0 C2.99 1.98 3.98 3.96 5 6 C3.35 5.67 1.7 5.34 0 5 C0 3.35 0 1.7 0 0 Z " fill="#ADBEAD" transform="translate(274,393)"/>
<path d="M0 0 C0.33 0 0.66 0 1 0 C1.1953125 6.0546875 1.1953125 6.0546875 1 8 C0.34 8.66 -0.32 9.32 -1 10 C-2.31223496 6.06329512 -1.24296256 3.87511856 0 0 Z " fill="#82A484" transform="translate(308,352)"/>
<path d="M0 0 C1.65 1.65 3.3 3.3 5 5 C4.01 5 3.02 5 2 5 C1.67 5.66 1.34 6.32 1 7 C0.67 4.69 0.34 2.38 0 0 Z " fill="#ADC9A6" transform="translate(409,103)"/>
</svg>
